<?xml version="1.0" encoding="UTF-8" standalone="no"?>
<!-- Generator: Adobe Illustrator 19.0.0, SVG Export Plug-In . SVG Version: 6.00 Build 0)  -->

<svg
   xmlns:dc="http://purl.org/dc/elements/1.1/"
   xmlns:cc="http://creativecommons.org/ns#"
   xmlns:rdf="http://www.w3.org/1999/02/22-rdf-syntax-ns#"
   xmlns:svg="http://www.w3.org/2000/svg"
   xmlns="http://www.w3.org/2000/svg"
   xmlns:xlink="http://www.w3.org/1999/xlink"
   xmlns:sodipodi="http://sodipodi.sourceforge.net/DTD/sodipodi-0.dtd"
   xmlns:inkscape="http://www.inkscape.org/namespaces/inkscape"
   version="1.1"
   id="Layer_1"
   x="0px"
   y="0px"
   viewBox="0 0 469.33401 512.00073"
   xml:space="preserve"
   width="469.33401"
   height="512.00073"
   sodipodi:docname="hexagon.svg"
   inkscape:version="0.92.3 (2405546, 2018-03-11)"><metadata
   id="metadata43"><rdf:RDF><cc:Work
       rdf:about=""><dc:format>image/svg+xml</dc:format><dc:type
         rdf:resource="http://purl.org/dc/dcmitype/StillImage" /></cc:Work></rdf:RDF></metadata><defs
   id="defs41"><path
     d="m 78.9,136 c 1.6,-3.3 1.5,-7.4 -0.2,-7.4 -1.4,0 -3.7,5.6 -3.3,8.3 0.5,3.7 1.5,3.4 3.5,-0.9 z m -9,0 c 0.3,-1.7 -0.3,-3.4 -1.8,-5.2 -2.2,-2.6 -2.2,-2.6 -2.9,-0.4 -0.5,1.4 -0.1,3.3 1.1,5.2 2.1,3.7 2.9,3.8 3.6,0.4 z m -9.3,0.2 c 0,-1.5 -5.8,-7.6 -7.2,-7.6 -1.9,0 -0.5,3.3 2.5,6 3.6,3.3 4.7,3.7 4.7,1.6 z m 28.8,-1.6 c 2.9,-2.7 4.3,-6 2.5,-6 -1.5,0 -7.3,6.1 -7.3,7.6 0,2.1 1.1,1.7 4.8,-1.6 z m -39.8,-7.7 c 0,-1.7 -5.9,-6.3 -8,-6.3 -2.5,0 -0.7,3.8 2.8,5.8 4.5,2.6 5.2,2.7 5.2,0.5 z M 62,126.4 c 0.4,-1.7 -0.2,-3.1 -2.3,-5.2 l -2.9,-2.9 -1.2,2.3 c -1,1.9 -0.8,2.6 1.6,5.1 3.3,3.5 4,3.6 4.8,0.7 z M 74.9,126 c 1.7,-2.3 1.8,-2.7 0.3,-4.9 -2.1,-3.1 -3,-3.1 -5,0 -1.6,2.4 -1.6,2.7 0.1,5 2.2,3 2.4,3 4.6,-0.1 z M 88,125.7 c 2.4,-2.5 2.6,-3.2 1.6,-5.1 l -1.2,-2.3 -2.9,2.9 c -2.1,2.1 -2.7,3.5 -2.3,5.2 0.8,2.9 1.5,2.8 4.8,-0.7 z m 12.7,0.7 c 3.6,-2 5.5,-5.8 2.9,-5.8 -2.1,0 -8,4.6 -8,6.3 0,2.2 0.4,2.2 5.1,-0.5 z m -63.1,-6.7 c 0,-1.1 -1.5,-2.8 -3.6,-4 -4.5,-2.7 -5.4,-2.6 -5.4,0.2 0,1.6 1,2.8 3.3,4 4.3,2.1 5.7,2.1 5.7,-0.2 z m 75,-0.1 c 2.6,-1.3 4,-2.7 4,-4 0,-2.5 -1,-2.5 -5.4,0.1 -2.1,1.2 -3.6,2.9 -3.6,4 0,2.4 0.2,2.4 5,-0.1 z M 52.2,117 c 0.5,-2.1 0,-3.1 -2.7,-5.4 -4.1,-3.5 -4.7,-3.6 -5.9,-0.7 -0.7,1.8 -0.3,2.7 2.8,5.4 4.5,4 5,4 5.8,0.7 z M 99,116.3 c 3.5,-3 3.8,-3.5 2.7,-5.5 -1.5,-2.8 -1.9,-2.7 -5.9,0.7 -2.7,2.3 -3.2,3.3 -2.6,5.5 0.3,1.4 0.9,2.6 1.3,2.6 0.3,0 2.4,-1.5 4.5,-3.3 z m -30.8,-1.9 c 0.4,-1.3 -0.2,-2.8 -1.7,-4.4 -2.8,-3 -3.3,-3 -5.4,0.2 -1.6,2.5 -1.6,2.7 1.1,5.5 2.9,3.1 4.7,2.7 6,-1.3 z M 84,110.5 c -1.7,-3.5 -2.1,-3.5 -5.1,-0.7 -2.7,2.6 -2.8,3.1 -0.7,6.4 l 1.7,2.5 2.8,-2.7 c 2.7,-2.6 2.7,-2.8 1.3,-5.5 z m -58.4,3.3 c 0,-2.3 -0.7,-3.1 -3.7,-4.2 -2.1,-0.8 -4.1,-1.6 -4.5,-1.8 -0.5,-0.2 -0.8,0.9 -0.8,2.5 0,2.4 0.6,3.1 4.3,4.5 2.3,0.8 4.3,1.6 4.5,1.7 0.1,0 0.2,-1.2 0.2,-2.7 z m 103,-3.5 c 0,-1.6 -0.3,-2.7 -0.7,-2.5 -0.5,0.2 -2.5,1 -4.5,1.8 -3.1,1.1 -3.8,1.9 -3.8,4.1 v 2.7 l 4.5,-1.7 c 3.9,-1.4 4.5,-2 4.5,-4.4 z m -88.2,-2.2 c 1,-2.2 0.8,-2.7 -2.3,-5.1 -3.8,-2.8 -5.9,-2.7 -6.7,0.4 -0.4,1.5 0.4,2.7 3.1,4.6 4.4,3.2 4.5,3.2 5.9,0.1 z m 69.7,0.3 c 2.7,-1.8 3.5,-2.9 3.3,-4.8 -0.4,-3.4 -2.7,-3.5 -6.7,-0.2 -3,2.5 -3.2,3.1 -2.2,5 1.4,2.7 1.3,2.7 5.6,0 z m -52.5,-2.9 c 1.2,-2.9 1.1,-3.2 -2.2,-6.6 l -3.6,-3.6 -1.7,3.3 c -1.7,3.2 -1.7,3.2 1.6,6.6 1.8,1.9 3.6,3.4 4,3.4 0.4,0 1.2,-1.4 1.9,-3.1 z m 35.9,-0.3 c 3.3,-3.4 3.3,-3.4 1.6,-6.6 l -1.7,-3.2 -3.8,3.7 c -3.8,3.7 -3.8,3.7 -2.1,6.6 0.9,1.6 1.8,2.9 2.2,2.9 0.3,0 2,-1.5 3.8,-3.4 z m -17.9,-0.6 2.1,-3 -2.1,-3 c -1.2,-1.6 -2.5,-3 -3,-3 -0.5,0 -1.8,1.4 -3,3 l -2.1,3 2.1,3 c 1.2,1.7 2.5,3 3,3 0.5,0 1.8,-1.3 3,-3 z M 28,101 c 1.1,-3 0.6,-4 -3.3,-6.2 -5.1,-2.9 -6.1,-2.8 -6.1,0.8 0,2.4 0.7,3.3 3.8,4.9 4.6,2.5 4.8,2.5 5.6,0.5 z m 95.3,-0.6 c 2.1,-1.2 3.9,-2.3 4.1,-2.4 0.9,-0.6 -1.2,-5.4 -2.4,-5.4 -2.1,0 -8.4,4.1 -8.4,5.5 0,2.1 1.1,4.5 2,4.5 0.5,0 2.6,-1 4.7,-2.2 z m -77.1,-5 c 1.7,-3.2 1.7,-3.2 -1.7,-6 -1.8,-1.5 -3.7,-2.8 -4.1,-2.8 -0.8,0 -4.2,6 -3.6,6.4 0.2,0.1 1.8,1.4 3.6,2.9 1.9,1.5 3.5,2.7 3.8,2.7 0.2,0 1.1,-1.4 2,-3.2 z m 60.4,-0.7 c 2.4,-1.9 2.4,-2.1 0.8,-4.8 -2.2,-3.7 -2.8,-3.8 -6.7,-0.5 l -3.4,2.8 1.7,3.2 c 1.8,3.5 2.4,3.4 7.6,-0.7 z M 65.5,93.5 67.8,90.4 64.5,87 61.2,83.6 58.9,85.8 c -1.3,1.2 -2.3,2.6 -2.3,3.2 0,0.7 5.8,7.6 6.5,7.6 0.1,0 1.2,-1.4 2.4,-3.1 z m 23.1,-4 c 0,-0.5 -1,-2 -2.2,-3.4 l -2.3,-2.6 -3.4,3.4 -3.3,3.5 2.3,3.1 2.3,3.1 3.3,-3.2 c 1.8,-1.8 3.3,-3.5 3.3,-3.9 z m -54.9,-4 c 1.2,-3 1.1,-3.3 -1.7,-5.6 -5.7,-4.7 -6.2,-4.7 -7.9,-0.6 -1.5,3.5 -1.5,3.9 0.1,4.8 0.9,0.6 2.9,2 4.3,3.2 3,2.5 3.4,2.4 5.2,-1.8 z m 84.8,0.3 c 2.7,-2.3 3.3,-3.3 2.8,-5.3 -1.4,-5.2 -2.2,-5.4 -6.9,-1.8 l -4.5,3.4 1.5,3.3 c 1.9,3.9 2.8,4 7.1,0.4 z m -64,-3.4 2,-3.3 -3.1,-3.2 c -1.8,-1.8 -3.5,-3.3 -3.9,-3.3 -0.4,0 -1.7,1.4 -3,3.1 l -2.1,3.1 3.3,3.4 c 1.8,1.9 3.6,3.4 4,3.4 0.4,0 1.6,-1.5 2.8,-3.2 z m 43,-0.2 c 3.5,-3.6 3.4,-5.5 -0.4,-8.6 -1.4,-1.1 -2.1,-0.8 -5,2 l -3.4,3.3 2.2,3.3 c 1.2,1.9 2.4,3.4 2.8,3.4 0.3,0 2,-1.5 3.8,-3.4 z M 76,80.7 c 3,-3.2 2.8,-4.8 -1.3,-8.5 -2.1,-1.9 -2.1,-1.9 -4.2,0 -4.1,3.7 -4.3,5.3 -1.3,8.5 1.5,1.6 3.1,2.9 3.4,2.9 0.3,0 1.9,-1.3 3.4,-2.9 z M 41.6,71 c 1.2,-1.9 2.1,-3.7 1.9,-3.9 -1.7,-1.6 -8.3,-6.5 -8.9,-6.5 -0.4,0 -1.5,1.6 -2.6,3.5 l -1.8,3.4 3.9,3.5 c 2.2,1.9 4.3,3.5 4.7,3.6 0.3,0 1.6,-1.6 2.8,-3.6 z m 73,-3.4 c 0,-1.6 -3.5,-7 -4.5,-7 -0.5,0.1 -2.8,1.6 -4.9,3.4 l -3.9,3.4 2.2,3.6 2.3,3.6 4.4,-3.1 c 2.4,-1.6 4.4,-3.4 4.4,-3.9 z m -49.9,0.4 2.2,-3.6 -3.5,-3.5 -3.5,-3.4 -2.7,3.6 -2.8,3.7 3.3,3.4 c 1.8,1.9 3.6,3.4 4,3.4 0.4,0 1.7,-1.6 3,-3.6 z m 22.8,0.2 C 91,64.6 91,63.9 87.3,59.8 l -2.1,-2.2 -3.3,3.2 c -1.8,1.7 -3.3,3.6 -3.3,4 0,1.1 4.2,6.8 5,6.8 0.3,0 2.1,-1.5 3.9,-3.4 z M 51.1,56.9 c 1.3,-1.6 2.5,-3.3 2.5,-3.8 0,-1.8 -7.7,-8.8 -8.9,-8.1 -0.6,0.4 -1.8,2.1 -2.7,3.8 -1.6,3 -1.5,3.1 2.2,6.9 2.1,2.2 4,3.9 4.2,3.9 0.1,0 1.4,-1.2 2.7,-2.7 z M 101,55.7 c 3.7,-3.8 3.8,-3.9 2.2,-6.9 -0.9,-1.7 -2.1,-3.4 -2.7,-3.8 -1.1,-0.6 -8.9,6.2 -8.9,7.9 0,1 4.2,6.6 5,6.6 0.3,0.1 2.3,-1.6 4.4,-3.8 z m -24.4,-1.6 3.4,-3.5 -3.7,-3.8 -3.7,-3.7 -3.7,3.7 -3.7,3.8 3.4,3.5 c 1.9,1.9 3.7,3.5 4,3.5 0.3,0 2.1,-1.6 4,-3.5 z m -10,-17.5 c 0,-0.3 -1.8,-2.4 -4.1,-4.5 l -4.1,-4 -3.4,3.9 -3.4,4 4.2,4.3 4.3,4.4 3.2,-3.8 c 1.8,-2.1 3.3,-4 3.3,-4.3 z m 26,-1.9 C 92,33.8 90.6,31.9 89.3,30.3 L 87,27.6 82.6,32.1 c -4.7,4.8 -4.7,4.5 0.4,10.3 l 2,2.2 4.2,-4.1 c 3.3,-3.2 4.1,-4.6 3.4,-5.8 z M 77,25.6 c 2,-2.2 3.6,-4.3 3.6,-4.8 -0.1,-0.4 -1.9,-2.7 -4,-5.2 l -4,-4.5 -4,4.5 c -2.1,2.5 -3.9,4.8 -4,5.1 0,0.9 7.1,8.9 8,8.9 0.4,0 2.4,-1.8 4.4,-4 z"
     id="layer102"
     inkscape:connector-curvature="0" /></defs><sodipodi:namedview
   pagecolor="#ffffff"
   bordercolor="#666666"
   borderopacity="1"
   objecttolerance="10"
   gridtolerance="10"
   guidetolerance="10"
   inkscape:pageopacity="0"
   inkscape:pageshadow="2"
   inkscape:window-width="1920"
   inkscape:window-height="1020"
   id="namedview39"
   showgrid="false"
   inkscape:zoom="0.65186406"
   inkscape:cx="354.59437"
   inkscape:cy="404.50483"
   inkscape:window-x="0"
   inkscape:window-y="0"
   inkscape:window-maximized="1"
   inkscape:current-layer="Layer_1" />
<g
   id="g6"
   transform="translate(-21.334,-2.5e-4)">
	<g
   id="g4">
		<path
   d="m 485.291,129.408 -224,-128 c -3.285,-1.877 -7.296,-1.877 -10.581,0 l -224,128 c -3.328,1.899 -5.376,5.44 -5.376,9.259 v 234.667 c 0,3.819 2.048,7.36 5.376,9.259 l 224,128 c 1.643,0.939 3.456,1.408 5.291,1.408 1.835,0 3.648,-0.469 5.291,-1.408 l 224,-128 c 3.328,-1.899 5.376,-5.44 5.376,-9.259 V 138.667 c -0.001,-3.819 -2.049,-7.36 -5.377,-9.259 z"
   id="path2"
   inkscape:connector-curvature="0"
   style="fill:#ffffff" />
	</g>
</g>
<g
   id="g8"
   transform="translate(-21.334,-2.5e-4)">
</g>
<g
   id="g10"
   transform="translate(-21.334,-2.5e-4)">
</g>
<g
   id="g12"
   transform="translate(-21.334,-2.5e-4)">
</g>
<g
   id="g14"
   transform="translate(-21.334,-2.5e-4)">
</g>
<g
   id="g16"
   transform="translate(-21.334,-2.5e-4)">
</g>
<g
   id="g18"
   transform="translate(-21.334,-2.5e-4)">
</g>
<g
   id="g20"
   transform="translate(-21.334,-2.5e-4)">
</g>
<g
   id="g22"
   transform="translate(-21.334,-2.5e-4)">
</g>
<g
   id="g24"
   transform="translate(-21.334,-2.5e-4)">
</g>
<g
   id="g26"
   transform="translate(-21.334,-2.5e-4)">
</g>
<g
   id="g28"
   transform="translate(-21.334,-2.5e-4)">
</g>
<g
   id="g30"
   transform="translate(-21.334,-2.5e-4)">
</g>
<g
   id="g32"
   transform="translate(-21.334,-2.5e-4)">
</g>
<g
   id="g34"
   transform="translate(-21.334,-2.5e-4)">
</g>
<g
   id="g36"
   transform="translate(-21.334,-2.5e-4)">
</g>
<style
   id="style850"
   type="text/css">
	.st0{clip-path:url(#layer102_1_);}
	.st1{fill:url(#SVGID_1_);}
</style><g
   id="g926"
   transform="matrix(3.0738018,0,0,3.0738018,12.657836,25.358135)"><g
     id="Layer_1-3">
</g><g
     id="Layer_2">
	<g
   id="g889">
		<defs
   id="defs854">
			<path
   d="m 78.9,136 c 1.6,-3.3 1.5,-7.4 -0.2,-7.4 -1.4,0 -3.7,5.6 -3.3,8.3 0.5,3.7 1.5,3.4 3.5,-0.9 z m -9,0 c 0.3,-1.7 -0.3,-3.4 -1.8,-5.2 -2.2,-2.6 -2.2,-2.6 -2.9,-0.4 -0.5,1.4 -0.1,3.3 1.1,5.2 2.1,3.7 2.9,3.8 3.6,0.4 z m -9.3,0.2 c 0,-1.5 -5.8,-7.6 -7.2,-7.6 -1.9,0 -0.5,3.3 2.5,6 3.6,3.3 4.7,3.7 4.7,1.6 z m 28.8,-1.6 c 2.9,-2.7 4.3,-6 2.5,-6 -1.5,0 -7.3,6.1 -7.3,7.6 0,2.1 1.1,1.7 4.8,-1.6 z m -39.8,-7.7 c 0,-1.7 -5.9,-6.3 -8,-6.3 -2.5,0 -0.7,3.8 2.8,5.8 4.5,2.6 5.2,2.7 5.2,0.5 z M 62,126.4 c 0.4,-1.7 -0.2,-3.1 -2.3,-5.2 l -2.9,-2.9 -1.2,2.3 c -1,1.9 -0.8,2.6 1.6,5.1 3.3,3.5 4,3.6 4.8,0.7 z M 74.9,126 c 1.7,-2.3 1.8,-2.7 0.3,-4.9 -2.1,-3.1 -3,-3.1 -5,0 -1.6,2.4 -1.6,2.7 0.1,5 2.2,3 2.4,3 4.6,-0.1 z M 88,125.7 c 2.4,-2.5 2.6,-3.2 1.6,-5.1 l -1.2,-2.3 -2.9,2.9 c -2.1,2.1 -2.7,3.5 -2.3,5.2 0.8,2.9 1.5,2.8 4.8,-0.7 z m 12.7,0.7 c 3.6,-2 5.5,-5.8 2.9,-5.8 -2.1,0 -8,4.6 -8,6.3 0,2.2 0.4,2.2 5.1,-0.5 z m -63.1,-6.7 c 0,-1.1 -1.5,-2.8 -3.6,-4 -4.5,-2.7 -5.4,-2.6 -5.4,0.2 0,1.6 1,2.8 3.3,4 4.3,2.1 5.7,2.1 5.7,-0.2 z m 75,-0.1 c 2.6,-1.3 4,-2.7 4,-4 0,-2.5 -1,-2.5 -5.4,0.1 -2.1,1.2 -3.6,2.9 -3.6,4 0,2.4 0.2,2.4 5,-0.1 z M 52.2,117 c 0.5,-2.1 0,-3.1 -2.7,-5.4 -4.1,-3.5 -4.7,-3.6 -5.9,-0.7 -0.7,1.8 -0.3,2.7 2.8,5.4 4.5,4 5,4 5.8,0.7 z M 99,116.3 c 3.5,-3 3.8,-3.5 2.7,-5.5 -1.5,-2.8 -1.9,-2.7 -5.9,0.7 -2.7,2.3 -3.2,3.3 -2.6,5.5 0.3,1.4 0.9,2.6 1.3,2.6 0.3,0 2.4,-1.5 4.5,-3.3 z m -30.8,-1.9 c 0.4,-1.3 -0.2,-2.8 -1.7,-4.4 -2.8,-3 -3.3,-3 -5.4,0.2 -1.6,2.5 -1.6,2.7 1.1,5.5 2.9,3.1 4.7,2.7 6,-1.3 z M 84,110.5 c -1.7,-3.5 -2.1,-3.5 -5.1,-0.7 -2.7,2.6 -2.8,3.1 -0.7,6.4 l 1.7,2.5 2.8,-2.7 c 2.7,-2.6 2.7,-2.8 1.3,-5.5 z m -58.4,3.3 c 0,-2.3 -0.7,-3.1 -3.7,-4.2 -2.1,-0.8 -4.1,-1.6 -4.5,-1.8 -0.5,-0.2 -0.8,0.9 -0.8,2.5 0,2.4 0.6,3.1 4.3,4.5 2.3,0.8 4.3,1.6 4.5,1.7 0.1,0 0.2,-1.2 0.2,-2.7 z m 103,-3.5 c 0,-1.6 -0.3,-2.7 -0.7,-2.5 -0.5,0.2 -2.5,1 -4.5,1.8 -3.1,1.1 -3.8,1.9 -3.8,4.1 v 2.7 l 4.5,-1.7 c 3.9,-1.4 4.5,-2 4.5,-4.4 z m -88.2,-2.2 c 1,-2.2 0.8,-2.7 -2.3,-5.1 -3.8,-2.8 -5.9,-2.7 -6.7,0.4 -0.4,1.5 0.4,2.7 3.1,4.6 4.4,3.2 4.5,3.2 5.9,0.1 z m 69.7,0.3 c 2.7,-1.8 3.5,-2.9 3.3,-4.8 -0.4,-3.4 -2.7,-3.5 -6.7,-0.2 -3,2.5 -3.2,3.1 -2.2,5 1.4,2.7 1.3,2.7 5.6,0 z m -52.5,-2.9 c 1.2,-2.9 1.1,-3.2 -2.2,-6.6 l -3.6,-3.6 -1.7,3.3 c -1.7,3.2 -1.7,3.2 1.6,6.6 1.8,1.9 3.6,3.4 4,3.4 0.4,0 1.2,-1.4 1.9,-3.1 z m 35.9,-0.3 c 3.3,-3.4 3.3,-3.4 1.6,-6.6 l -1.7,-3.2 -3.8,3.7 c -3.8,3.7 -3.8,3.7 -2.1,6.6 0.9,1.6 1.8,2.9 2.2,2.9 0.3,0 2,-1.5 3.8,-3.4 z m -17.9,-0.6 2.1,-3 -2.1,-3 c -1.2,-1.6 -2.5,-3 -3,-3 -0.5,0 -1.8,1.4 -3,3 l -2.1,3 2.1,3 c 1.2,1.7 2.5,3 3,3 0.5,0 1.8,-1.3 3,-3 z M 28,101 c 1.1,-3 0.6,-4 -3.3,-6.2 -5.1,-2.9 -6.1,-2.8 -6.1,0.8 0,2.4 0.7,3.3 3.8,4.9 4.6,2.5 4.8,2.5 5.6,0.5 z m 95.3,-0.6 c 2.1,-1.2 3.9,-2.3 4.1,-2.4 0.9,-0.6 -1.2,-5.4 -2.4,-5.4 -2.1,0 -8.4,4.1 -8.4,5.5 0,2.1 1.1,4.5 2,4.5 0.5,0 2.6,-1 4.7,-2.2 z m -77.1,-5 c 1.7,-3.2 1.7,-3.2 -1.7,-6 -1.8,-1.5 -3.7,-2.8 -4.1,-2.8 -0.8,0 -4.2,6 -3.6,6.4 0.2,0.1 1.8,1.4 3.6,2.9 1.9,1.5 3.5,2.7 3.8,2.7 0.2,0 1.1,-1.4 2,-3.2 z m 60.4,-0.7 c 2.4,-1.9 2.4,-2.1 0.8,-4.8 -2.2,-3.7 -2.8,-3.8 -6.7,-0.5 l -3.4,2.8 1.7,3.2 c 1.8,3.5 2.4,3.4 7.6,-0.7 z M 65.5,93.5 67.8,90.4 64.5,87 61.2,83.6 58.9,85.8 c -1.3,1.2 -2.3,2.6 -2.3,3.2 0,0.7 5.8,7.6 6.5,7.6 0.1,0 1.2,-1.4 2.4,-3.1 z m 23.1,-4 c 0,-0.5 -1,-2 -2.2,-3.4 l -2.3,-2.6 -3.4,3.4 -3.3,3.5 2.3,3.1 2.3,3.1 3.3,-3.2 c 1.8,-1.8 3.3,-3.5 3.3,-3.9 z m -54.9,-4 c 1.2,-3 1.1,-3.3 -1.7,-5.6 -5.7,-4.7 -6.2,-4.7 -7.9,-0.6 -1.5,3.5 -1.5,3.9 0.1,4.8 0.9,0.6 2.9,2 4.3,3.2 3,2.5 3.4,2.4 5.2,-1.8 z m 84.8,0.3 c 2.7,-2.3 3.3,-3.3 2.8,-5.3 -1.4,-5.2 -2.2,-5.4 -6.9,-1.8 l -4.5,3.4 1.5,3.3 c 1.9,3.9 2.8,4 7.1,0.4 z m -64,-3.4 2,-3.3 -3.1,-3.2 c -1.8,-1.8 -3.5,-3.3 -3.9,-3.3 -0.4,0 -1.7,1.4 -3,3.1 l -2.1,3.1 3.3,3.4 c 1.8,1.9 3.6,3.4 4,3.4 0.4,0 1.6,-1.5 2.8,-3.2 z m 43,-0.2 c 3.5,-3.6 3.4,-5.5 -0.4,-8.6 -1.4,-1.1 -2.1,-0.8 -5,2 l -3.4,3.3 2.2,3.3 c 1.2,1.9 2.4,3.4 2.8,3.4 0.3,0 2,-1.5 3.8,-3.4 z M 76,80.7 c 3,-3.2 2.8,-4.8 -1.3,-8.5 -2.1,-1.9 -2.1,-1.9 -4.2,0 -4.1,3.7 -4.3,5.3 -1.3,8.5 1.5,1.6 3.1,2.9 3.4,2.9 0.3,0 1.9,-1.3 3.4,-2.9 z M 41.6,71 c 1.2,-1.9 2.1,-3.7 1.9,-3.9 -1.7,-1.6 -8.3,-6.5 -8.9,-6.5 -0.4,0 -1.5,1.6 -2.6,3.5 l -1.8,3.4 3.9,3.5 c 2.2,1.9 4.3,3.5 4.7,3.6 0.3,0 1.6,-1.6 2.8,-3.6 z m 73,-3.4 c 0,-1.6 -3.5,-7 -4.5,-7 -0.5,0.1 -2.8,1.6 -4.9,3.4 l -3.9,3.4 2.2,3.6 2.3,3.6 4.4,-3.1 c 2.4,-1.6 4.4,-3.4 4.4,-3.9 z m -49.9,0.4 2.2,-3.6 -3.5,-3.5 -3.5,-3.4 -2.7,3.6 -2.8,3.7 3.3,3.4 c 1.8,1.9 3.6,3.4 4,3.4 0.4,0 1.7,-1.6 3,-3.6 z m 22.8,0.2 C 91,64.6 91,63.9 87.3,59.8 l -2.1,-2.2 -3.3,3.2 c -1.8,1.7 -3.3,3.6 -3.3,4 0,1.1 4.2,6.8 5,6.8 0.3,0 2.1,-1.5 3.9,-3.4 z M 51.1,56.9 c 1.3,-1.6 2.5,-3.3 2.5,-3.8 0,-1.8 -7.7,-8.8 -8.9,-8.1 -0.6,0.4 -1.8,2.1 -2.7,3.8 -1.6,3 -1.5,3.1 2.2,6.9 2.1,2.2 4,3.9 4.2,3.9 0.1,0 1.4,-1.2 2.7,-2.7 z M 101,55.7 c 3.7,-3.8 3.8,-3.9 2.2,-6.9 -0.9,-1.7 -2.1,-3.4 -2.7,-3.8 -1.1,-0.6 -8.9,6.2 -8.9,7.9 0,1 4.2,6.6 5,6.6 0.3,0.1 2.3,-1.6 4.4,-3.8 z m -24.4,-1.6 3.4,-3.5 -3.7,-3.8 -3.7,-3.7 -3.7,3.7 -3.7,3.8 3.4,3.5 c 1.9,1.9 3.7,3.5 4,3.5 0.3,0 2.1,-1.6 4,-3.5 z m -10,-17.5 c 0,-0.3 -1.8,-2.4 -4.1,-4.5 l -4.1,-4 -3.4,3.9 -3.4,4 4.2,4.3 4.3,4.4 3.2,-3.8 c 1.8,-2.1 3.3,-4 3.3,-4.3 z m 26,-1.9 C 92,33.8 90.6,31.9 89.3,30.3 L 87,27.6 82.6,32.1 c -4.7,4.8 -4.7,4.5 0.4,10.3 l 2,2.2 4.2,-4.1 c 3.3,-3.2 4.1,-4.6 3.4,-5.8 z M 77,25.6 c 2,-2.2 3.6,-4.3 3.6,-4.8 -0.1,-0.4 -1.9,-2.7 -4,-5.2 l -4,-4.5 -4,4.5 c -2.1,2.5 -3.9,4.8 -4,5.1 0,0.9 7.1,8.9 8,8.9 0.4,0 2.4,-1.8 4.4,-4 z"
   id="path903"
   inkscape:connector-curvature="0" />
		</defs>
		<clipPath
   id="layer102_1_">
			<use
   id="use856"
   style="overflow:visible"
   xlink:href="#layer102"
   x="0"
   y="0"
   width="100%"
   height="100%" />
		</clipPath>
		<g
   clip-path="url(#layer102_1_)"
   class="st0"
   id="layer101">
			<linearGradient
   y2="146"
   x2="71"
   y1="3.129262e-07"
   x1="71"
   gradientUnits="userSpaceOnUse"
   id="SVGID_1_">
				<stop
   id="stop859"
   style="stop-color:#303F9F"
   offset="0" />
				<stop
   id="stop861"
   style="stop-color:#303F9F"
   offset="0.2941" />
				<stop
   id="stop863"
   style="stop-color:#303F9F"
   offset="0.3425" />
				<stop
   id="stop865"
   style="stop-color:#3342A0"
   offset="0.4895" />
				<stop
   id="stop867"
   style="stop-color:#3C4AA5"
   offset="0.5965" />
				<stop
   id="stop869"
   style="stop-color:#4C59AD"
   offset="0.6909" />
				<stop
   id="stop871"
   style="stop-color:#636EB8"
   offset="0.778" />
				<stop
   id="stop873"
   style="stop-color:#8089C7"
   offset="0.8601" />
				<stop
   id="stop875"
   style="stop-color:#A3AAD8"
   offset="0.9374" />
				<stop
   id="stop877"
   style="stop-color:#C5CAE9"
   offset="1" />
				<stop
   id="stop879"
   style="stop-color:#F1A9AD"
   offset="1" />
				<stop
   id="stop881"
   style="stop-color:#FF9E9A"
   offset="1" />
				<stop
   id="stop883"
   style="stop-color:#FB847D"
   offset="1" />
			</linearGradient>
			<path
   id="path886"
   d="M 0,73 V 0 h 71 71 v 73 73 H 71 0 Z"
   class="st1"
   inkscape:connector-curvature="0"
   style="fill:url(#SVGID_1_)" />
		</g>
	</g>
</g></g></svg>