<?xml version="1.0" encoding="utf-8"?>
<!-- Generator: Adobe Illustrator 21.0.0, SVG Export Plug-In . SVG Version: 6.00 Build 0)  -->
<svg version="1.1" xmlns="http://www.w3.org/2000/svg" xmlns:xlink="http://www.w3.org/1999/xlink" x="0px" y="0px"
	 viewBox="0 0 142 146" style="enable-background:new 0 0 142 146;" xml:space="preserve">
<style type="text/css">
	.st0{clip-path:url(#layer102_1_);}
	.st1{fill:url(#SVGID_1_);}
</style>
<g id="Layer_1">
</g>
<g id="Layer_2">
	<g>
		<defs>
			<path id="layer102" d="M78.9,136c1.6-3.3,1.5-7.4-0.2-7.4c-1.4,0-3.7,5.6-3.3,8.3C75.9,140.6,76.9,140.3,78.9,136z M69.9,136
				c0.3-1.7-0.3-3.4-1.8-5.2c-2.2-2.6-2.2-2.6-2.9-0.4c-0.5,1.4-0.1,3.3,1.1,5.2C68.4,139.3,69.2,139.4,69.9,136z M60.6,136.2
				c0-1.5-5.8-7.6-7.2-7.6c-1.9,0-0.5,3.3,2.5,6C59.5,137.9,60.6,138.3,60.6,136.2z M89.4,134.6c2.9-2.7,4.3-6,2.5-6
				c-1.5,0-7.3,6.1-7.3,7.6C84.6,138.3,85.7,137.9,89.4,134.6z M49.6,126.9c0-1.7-5.9-6.3-8-6.3c-2.5,0-0.7,3.8,2.8,5.8
				C48.9,129,49.6,129.1,49.6,126.9z M62,126.4c0.4-1.7-0.2-3.1-2.3-5.2l-2.9-2.9l-1.2,2.3c-1,1.9-0.8,2.6,1.6,5.1
				C60.5,129.2,61.2,129.3,62,126.4z M74.9,126c1.7-2.3,1.8-2.7,0.3-4.9c-2.1-3.1-3-3.1-5,0c-1.6,2.4-1.6,2.7,0.1,5
				C72.5,129.1,72.7,129.1,74.9,126z M88,125.7c2.4-2.5,2.6-3.2,1.6-5.1l-1.2-2.3l-2.9,2.9c-2.1,2.1-2.7,3.5-2.3,5.2
				C84,129.3,84.7,129.2,88,125.7z M100.7,126.4c3.6-2,5.5-5.8,2.9-5.8c-2.1,0-8,4.6-8,6.3C95.6,129.1,96,129.1,100.7,126.4z
				 M37.6,119.7c0-1.1-1.5-2.8-3.6-4c-4.5-2.7-5.4-2.6-5.4,0.2c0,1.6,1,2.8,3.3,4C36.2,122,37.6,122,37.6,119.7z M112.6,119.6
				c2.6-1.3,4-2.7,4-4c0-2.5-1-2.5-5.4,0.1c-2.1,1.2-3.6,2.9-3.6,4C107.6,122.1,107.8,122.1,112.6,119.6z M52.2,117
				c0.5-2.1,0-3.1-2.7-5.4c-4.1-3.5-4.7-3.6-5.9-0.7c-0.7,1.8-0.3,2.7,2.8,5.4C50.9,120.3,51.4,120.3,52.2,117z M99,116.3
				c3.5-3,3.8-3.5,2.7-5.5c-1.5-2.8-1.9-2.7-5.9,0.7c-2.7,2.3-3.2,3.3-2.6,5.5c0.3,1.4,0.9,2.6,1.3,2.6
				C94.8,119.6,96.9,118.1,99,116.3z M68.2,114.4c0.4-1.3-0.2-2.8-1.7-4.4c-2.8-3-3.3-3-5.4,0.2c-1.6,2.5-1.6,2.7,1.1,5.5
				C65.1,118.8,66.9,118.4,68.2,114.4z M84,110.5c-1.7-3.5-2.1-3.5-5.1-0.7c-2.7,2.6-2.8,3.1-0.7,6.4l1.7,2.5l2.8-2.7
				C85.4,113.4,85.4,113.2,84,110.5z M25.6,113.8c0-2.3-0.7-3.1-3.7-4.2c-2.1-0.8-4.1-1.6-4.5-1.8c-0.5-0.2-0.8,0.9-0.8,2.5
				c0,2.4,0.6,3.1,4.3,4.5c2.3,0.8,4.3,1.6,4.5,1.7C25.5,116.5,25.6,115.3,25.6,113.8z M128.6,110.3c0-1.6-0.3-2.7-0.7-2.5
				c-0.5,0.2-2.5,1-4.5,1.8c-3.1,1.1-3.8,1.9-3.8,4.1v2.7l4.5-1.7C128,113.3,128.6,112.7,128.6,110.3z M40.4,108.1
				c1-2.2,0.8-2.7-2.3-5.1c-3.8-2.8-5.9-2.7-6.7,0.4c-0.4,1.5,0.4,2.7,3.1,4.6C38.9,111.2,39,111.2,40.4,108.1z M110.1,108.4
				c2.7-1.8,3.5-2.9,3.3-4.8c-0.4-3.4-2.7-3.5-6.7-0.2c-3,2.5-3.2,3.1-2.2,5C105.9,111.1,105.8,111.1,110.1,108.4z M57.6,105.5
				c1.2-2.9,1.1-3.2-2.2-6.6l-3.6-3.6l-1.7,3.3c-1.7,3.2-1.7,3.2,1.6,6.6c1.8,1.9,3.6,3.4,4,3.4S56.9,107.2,57.6,105.5z M93.5,105.2
				c3.3-3.4,3.3-3.4,1.6-6.6l-1.7-3.2l-3.8,3.7c-3.8,3.7-3.8,3.7-2.1,6.6c0.9,1.6,1.8,2.9,2.2,2.9C90,108.6,91.7,107.1,93.5,105.2z
				 M75.6,104.6l2.1-3l-2.1-3c-1.2-1.6-2.5-3-3-3s-1.8,1.4-3,3l-2.1,3l2.1,3c1.2,1.7,2.5,3,3,3S74.4,106.3,75.6,104.6z M28,101
				c1.1-3,0.6-4-3.3-6.2c-5.1-2.9-6.1-2.8-6.1,0.8c0,2.4,0.7,3.3,3.8,4.9C27,103,27.2,103,28,101z M123.3,100.4
				c2.1-1.2,3.9-2.3,4.1-2.4c0.9-0.6-1.2-5.4-2.4-5.4c-2.1,0-8.4,4.1-8.4,5.5c0,2.1,1.1,4.5,2,4.5
				C119.1,102.6,121.2,101.6,123.3,100.4z M46.2,95.4c1.7-3.2,1.7-3.2-1.7-6c-1.8-1.5-3.7-2.8-4.1-2.8c-0.8,0-4.2,6-3.6,6.4
				c0.2,0.1,1.8,1.4,3.6,2.9c1.9,1.5,3.5,2.7,3.8,2.7C44.4,98.6,45.3,97.2,46.2,95.4z M106.6,94.7c2.4-1.9,2.4-2.1,0.8-4.8
				c-2.2-3.7-2.8-3.8-6.7-0.5l-3.4,2.8l1.7,3.2C100.8,98.9,101.4,98.8,106.6,94.7z M65.5,93.5l2.3-3.1L64.5,87l-3.3-3.4l-2.3,2.2
				c-1.3,1.2-2.3,2.6-2.3,3.2c0,0.7,5.8,7.6,6.5,7.6C63.2,96.6,64.3,95.2,65.5,93.5z M88.6,89.5c0-0.5-1-2-2.2-3.4l-2.3-2.6
				l-3.4,3.4l-3.3,3.5l2.3,3.1l2.3,3.1l3.3-3.2C87.1,91.6,88.6,89.9,88.6,89.5z M33.7,85.5c1.2-3,1.1-3.3-1.7-5.6
				c-5.7-4.7-6.2-4.7-7.9-0.6c-1.5,3.5-1.5,3.9,0.1,4.8c0.9,0.6,2.9,2,4.3,3.2C31.5,89.8,31.9,89.7,33.7,85.5z M118.5,85.8
				c2.7-2.3,3.3-3.3,2.8-5.3c-1.4-5.2-2.2-5.4-6.9-1.8l-4.5,3.4l1.5,3.3C113.3,89.3,114.2,89.4,118.5,85.8z M54.5,82.4l2-3.3
				l-3.1-3.2c-1.8-1.8-3.5-3.3-3.9-3.3c-0.4,0-1.7,1.4-3,3.1l-2.1,3.1l3.3,3.4c1.8,1.9,3.6,3.4,4,3.4S53.3,84.1,54.5,82.4z
				 M97.5,82.2c3.5-3.6,3.4-5.5-0.4-8.6c-1.4-1.1-2.1-0.8-5,2l-3.4,3.3l2.2,3.3c1.2,1.9,2.4,3.4,2.8,3.4
				C94,85.6,95.7,84.1,97.5,82.2z M76,80.7c3-3.2,2.8-4.8-1.3-8.5c-2.1-1.9-2.1-1.9-4.2,0c-4.1,3.7-4.3,5.3-1.3,8.5
				c1.5,1.6,3.1,2.9,3.4,2.9C72.9,83.6,74.5,82.3,76,80.7z M41.6,71c1.2-1.9,2.1-3.7,1.9-3.9c-1.7-1.6-8.3-6.5-8.9-6.5
				c-0.4,0-1.5,1.6-2.6,3.5l-1.8,3.4l3.9,3.5c2.2,1.9,4.3,3.5,4.7,3.6C39.1,74.6,40.4,73,41.6,71z M114.6,67.6c0-1.6-3.5-7-4.5-7
				c-0.5,0.1-2.8,1.6-4.9,3.4l-3.9,3.4l2.2,3.6l2.3,3.6l4.4-3.1C112.6,69.9,114.6,68.1,114.6,67.6z M64.7,68l2.2-3.6l-3.5-3.5
				l-3.5-3.4l-2.7,3.6l-2.8,3.7l3.3,3.4c1.8,1.9,3.6,3.4,4,3.4S63.4,70,64.7,68z M87.5,68.2c3.5-3.6,3.5-4.3-0.2-8.4l-2.1-2.2
				l-3.3,3.2c-1.8,1.7-3.3,3.6-3.3,4c0,1.1,4.2,6.8,5,6.8C83.9,71.6,85.7,70.1,87.5,68.2z M51.1,56.9c1.3-1.6,2.5-3.3,2.5-3.8
				c0-1.8-7.7-8.8-8.9-8.1c-0.6,0.4-1.8,2.1-2.7,3.8c-1.6,3-1.5,3.1,2.2,6.9c2.1,2.2,4,3.9,4.2,3.9C48.5,59.6,49.8,58.4,51.1,56.9z
				 M101,55.7c3.7-3.8,3.8-3.9,2.2-6.9c-0.9-1.7-2.1-3.4-2.7-3.8c-1.1-0.6-8.9,6.2-8.9,7.9c0,1,4.2,6.6,5,6.6
				C96.9,59.6,98.9,57.9,101,55.7z M76.6,54.1l3.4-3.5l-3.7-3.8l-3.7-3.7l-3.7,3.7l-3.7,3.8l3.4,3.5c1.9,1.9,3.7,3.5,4,3.5
				C72.9,57.6,74.7,56,76.6,54.1z M66.6,36.6c0-0.3-1.8-2.4-4.1-4.5l-4.1-4L55,32l-3.4,4l4.2,4.3l4.3,4.4l3.2-3.8
				C65.1,38.8,66.6,36.9,66.6,36.6z M92.6,34.7c-0.6-0.9-2-2.8-3.3-4.4L87,27.6l-4.4,4.5c-4.7,4.8-4.7,4.5,0.4,10.3l2,2.2l4.2-4.1
				C92.5,37.3,93.3,35.9,92.6,34.7z M77,25.6c2-2.2,3.6-4.3,3.6-4.8c-0.1-0.4-1.9-2.7-4-5.2l-4-4.5l-4,4.5c-2.1,2.5-3.9,4.8-4,5.1
				c0,0.9,7.1,8.9,8,8.9C73,29.6,75,27.8,77,25.6z"/>
		</defs>
		<clipPath id="layer102_1_">
			<use xlink:href="#layer102"  style="overflow:visible;"/>
		</clipPath>
		<g id="layer101" class="st0">
			<linearGradient id="SVGID_1_" gradientUnits="userSpaceOnUse" x1="71" y1="3.129262e-07" x2="71" y2="146">
				<stop  offset="0" style="stop-color:#303F9F"/>
				<stop  offset="0.2941" style="stop-color:#303F9F"/>
				<stop  offset="0.3425" style="stop-color:#303F9F"/>
				<stop  offset="0.4895" style="stop-color:#3342A0"/>
				<stop  offset="0.5965" style="stop-color:#3C4AA5"/>
				<stop  offset="0.6909" style="stop-color:#4C59AD"/>
				<stop  offset="0.778" style="stop-color:#636EB8"/>
				<stop  offset="0.8601" style="stop-color:#8089C7"/>
				<stop  offset="0.9374" style="stop-color:#A3AAD8"/>
				<stop  offset="1" style="stop-color:#C5CAE9"/>
				<stop  offset="1" style="stop-color:#F1A9AD"/>
				<stop  offset="1" style="stop-color:#FF9E9A"/>
				<stop  offset="1" style="stop-color:#FB847D"/>
			</linearGradient>
			<path class="st1" d="M0,73V0h71h71v73v73H71H0V73z"/>
		</g>
	</g>
</g>
</svg>
